<svg xmlns="http://www.w3.org/2000/svg" viewBox="0 0 85.04 18.68"><defs><style>.cls-1{fill:#fff;}.cls-2{fill:#0074c5;}</style></defs><title>logo_upc</title><g id="Capa_2" data-name="Capa 2"><g id="Capa_1-2" data-name="Capa 1"><path class="cls-1" d="M9.33.09a9.25,9.25,0,1,0,9.25,9.25A9.25,9.25,0,0,0,9.33.09Z"/><path class="cls-2" d="M23.51,5.83A1.13,1.13,0,0,0,24.8,4.62V2.76h-.68V4.62c0,.46-.17.64-.61.64s-.6-.32-.6-.64V2.76h-.67V4.62A1.11,1.11,0,0,0,23.51,5.83Z"/><polygon class="cls-2" points="27.53 4.75 26.29 2.76 26.29 2.76 25.62 2.76 25.62 5.76 26.25 5.76 26.25 3.77 27.48 5.75 27.49 5.76 28.16 5.76 28.16 2.76 27.53 2.76 27.53 4.75"/><rect class="cls-2" x="29.21" y="2.76" width="0.67" height="3"/><polygon class="cls-2" points="31.58 5.76 32.33 5.76 33.33 2.77 33.33 2.76 32.63 2.76 31.96 4.85 31.3 2.76 30.61 2.76 31.58 5.75 31.58 5.76"/><polygon class="cls-2" points="36.3 5.19 34.69 5.19 34.69 4.48 36.13 4.48 36.13 3.95 34.69 3.95 34.69 3.33 36.27 3.33 36.27 2.76 34.02 2.76 34.02 5.76 36.3 5.76 36.3 5.19"/><path class="cls-2" d="M37.79,4.59h.64c.31,0,.44.12.49.45a1.79,1.79,0,0,1,0,.24,1.64,1.64,0,0,0,.09.47h.68v0a1.24,1.24,0,0,1-.12-.6.34.34,0,0,0,0-.1c0-.39-.16-.62-.42-.7a.73.73,0,0,0,.46-.75.83.83,0,0,0-.88-.83H37.11v3h.68V4.59Zm0-1.3h.71c.29,0,.44.13.44.4s-.14.42-.44.42h-.71Z"/><path class="cls-2" d="M41.51,5.83c.78,0,1.25-.37,1.25-1s-.63-.81-.86-.87l-.1,0c-.69-.18-.81-.21-.81-.43s.24-.32.44-.32c.38,0,.56.14.58.44h.65c0-.61-.45-1-1.2-1a1,1,0,0,0-1.12.91c0,.57.46.74.89.86l.19,0c.37.09.69.17.69.44s-.44.36-.57.36c-.41,0-.65-.2-.65-.54h-.65a.92.92,0,0,0,.26.71A1.41,1.41,0,0,0,41.51,5.83Z"/><rect class="cls-2" x="43.59" y="2.76" width="0.67" height="3"/><polygon class="cls-2" points="45.77 5.76 46.45 5.76 46.45 3.33 47.34 3.33 47.34 2.76 44.88 2.76 44.88 3.33 45.77 3.33 45.77 5.76"/><path class="cls-2" d="M47.32,5.76H48l.24-.66h1.1l.22.66h.7l-1.11-3h-.69l-1.14,3Zm1.1-1.17.37-1.07.37,1.07Z"/><polygon class="cls-2" points="51.17 5.76 51.85 5.76 51.85 3.33 52.74 3.33 52.74 2.76 50.28 2.76 50.28 3.33 51.17 3.33 51.17 5.76"/><path class="cls-2" d="M55.3,4.69H56a.93.93,0,0,0,1-1,.93.93,0,0,0-1-1H54.62v3h.68Zm0-1.4h.5c.28,0,.57,0,.57.43s-.29.44-.57.44h-.5Z"/><path class="cls-2" d="M58.83,5.83a1.46,1.46,0,0,0,1.48-1.56,1.48,1.48,0,1,0-3,0A1.45,1.45,0,0,0,58.83,5.83ZM58,4.27c0-.24.06-1,.8-1s.8.77.8,1c0,.48-.21,1-.8,1S58,4.75,58,4.27Z"/><polygon class="cls-2" points="61.58 2.76 60.9 2.76 60.9 5.76 63.03 5.76 63.03 5.19 61.58 5.19 61.58 2.76"/><rect class="cls-2" x="63.62" y="2.76" width="0.67" height="3"/><polygon class="cls-2" points="64.95 3.33 65.84 3.33 65.84 5.76 66.51 5.76 66.51 3.33 67.41 3.33 67.41 2.76 64.95 2.76 64.95 3.33"/><polygon class="cls-2" points="68.69 4.48 70.13 4.48 70.13 3.95 68.69 3.95 68.69 3.33 70.26 3.33 70.26 2.76 68.02 2.76 68.02 5.76 70.3 5.76 70.3 5.19 68.69 5.19 68.69 4.48"/><polygon class="cls-2" points="69.42 2.51 69.01 1.9 68.33 1.9 68.99 2.51 69.42 2.51"/><path class="cls-2" d="M72.93,4.6a.65.65,0,0,1-.66.66c-.6,0-.8-.51-.8-1,0-.24,0-1,.8-1a.63.63,0,0,1,.64.51h.65a1.2,1.2,0,0,0-1.29-1.08,1.45,1.45,0,0,0-1.48,1.58,1.46,1.46,0,0,0,1.48,1.56A1.27,1.27,0,0,0,73.59,4.6h-.66Z"/><polygon class="cls-2" points="76.08 4.75 74.84 2.76 74.84 2.76 74.17 2.76 74.17 5.76 74.81 5.76 74.81 3.77 76.04 5.75 76.04 5.76 76.71 5.76 76.71 2.76 76.08 2.76 76.08 4.75"/><rect class="cls-2" x="77.68" y="2.76" width="0.67" height="3"/><path class="cls-2" d="M81.21,4.6a.67.67,0,0,1-.67.66c-.59,0-.8-.51-.8-1,0-.24.06-1,.8-1a.63.63,0,0,1,.64.51h.65a1.2,1.2,0,0,0-1.29-1.08,1.45,1.45,0,0,0-1.48,1.58,1.46,1.46,0,0,0,1.48,1.56A1.27,1.27,0,0,0,81.86,4.6h-.65Z"/><path class="cls-2" d="M83.92,2.76h-.69l-1.13,3h.68L83,5.1h1.1l.23.66H85Zm0,1.83h-.75l.38-1.07Z"/><path class="cls-2" d="M23.54,7.84H22.25v3h1.29a1.33,1.33,0,0,0,1.37-1.52A1.31,1.31,0,0,0,23.54,7.84Zm-.62.57h.46c.59,0,.85.3.85,1s-.27.88-.73.88h-.58Z"/><polygon class="cls-2" points="26.18 9.56 27.62 9.56 27.62 9.03 26.18 9.03 26.18 8.41 27.75 8.41 27.75 7.84 25.5 7.84 25.5 10.84 27.79 10.84 27.79 10.27 26.18 10.27 26.18 9.56"/><path class="cls-2" d="M32.35,9.68H31.7a.66.66,0,0,1-.67.66c-.59,0-.8-.51-.8-1,0-.23.06-1,.8-1a.64.64,0,0,1,.64.51h.66A1.21,1.21,0,0,0,31,7.77a1.45,1.45,0,0,0-1.47,1.58A1.45,1.45,0,0,0,31,10.91,1.26,1.26,0,0,0,32.35,9.68Z"/><path class="cls-2" d="M35.49,10.84l-1.12-3h-.68l-1.14,3h.68l.23-.66h1.11l.22.66Zm-1.1-1.17h-.75L34,8.6Z"/><polygon class="cls-2" points="37.97 7.84 35.51 7.84 35.51 8.41 36.4 8.41 36.4 10.84 37.07 10.84 37.07 8.41 37.97 8.41 37.97 7.84"/><path class="cls-2" d="M37.92,10.83h.68l.23-.66h1.1l.23.66h.7l-1.12-3h-.69ZM39,9.67l.38-1.07.37,1.07Z"/><polygon class="cls-2" points="41.33 7.84 41.33 10.84 43.46 10.84 43.46 10.27 42.01 10.27 42.01 7.84 41.33 7.84"/><path class="cls-2" d="M45.65,9.71c0,.45-.17.63-.61.63s-.61-.32-.61-.63V7.84h-.67V9.71c0,.79.44,1.2,1.28,1.2a1.12,1.12,0,0,0,1.28-1.2V7.84h-.67Z"/><polygon class="cls-2" points="49.12 9.83 47.88 7.85 47.88 7.84 47.21 7.84 47.21 10.84 47.84 10.84 47.84 8.86 49.07 10.84 49.08 10.84 49.75 10.84 49.75 7.84 49.12 7.84 49.12 9.83"/><polygon class="cls-2" points="53.07 7.86 53.08 7.84 52.33 7.84 51.64 9.01 50.95 7.84 50.18 7.84 51.29 9.67 51.29 10.84 51.96 10.84 51.96 9.69 53.07 7.86"/><path class="cls-2" d="M55.86,10.84l-1.12-3h-.68l-1.14,3h.68l.24-.66h1.1l.22.66Zm-1.1-1.17H54l.38-1.07Z"/><path class="cls-2" d="M24.09,14.33a.64.64,0,0,0,.32-.26.69.69,0,0,0,.12-.41.71.71,0,0,0-.11-.39.82.82,0,0,0-.25-.24L24,13l-.21,0H22.29v3h1.45a1,1,0,0,0,.68-.27.88.88,0,0,0,.17-.28.87.87,0,0,0,.06-.32.75.75,0,0,0-.15-.47A.64.64,0,0,0,24.09,14.33Zm-1.39.22h.9l.24,0a.68.68,0,0,1,.2.07.4.4,0,0,1,.14.15.43.43,0,0,1,.06.24.49.49,0,0,1-.15.38.53.53,0,0,1-.4.14h-1ZM24,14.08a.77.77,0,0,1-.48.12H22.7v-.93h.79l.24,0a.47.47,0,0,1,.2.06.35.35,0,0,1,.13.14.54.54,0,0,1,.05.24A.42.42,0,0,1,24,14.08Z"/><path class="cls-2" d="M26.13,12.92l-1.17,3h.43l.33-.9H27l.32.89h.46l-1.17-3Zm.71,1.75h-1l.5-1.37Z"/><path class="cls-2" d="M30.63,15.73a1.18,1.18,0,0,1,0-.2,1.8,1.8,0,0,1,0-.22c0-.08,0-.15,0-.23a1.52,1.52,0,0,0,0-.21,1.34,1.34,0,0,0-.07-.18.47.47,0,0,0-.14-.14.37.37,0,0,0-.19-.08.65.65,0,0,0,.38-.28,1,1,0,0,0,.12-.48.73.73,0,0,0-.24-.58,1,1,0,0,0-.67-.21H28.3v3h.41V14.64h1a.49.49,0,0,1,.23,0,.38.38,0,0,1,.14.11.67.67,0,0,1,.08.17c0,.07,0,.14,0,.2a1.8,1.8,0,0,1,0,.22.86.86,0,0,1,0,.15v.07a.88.88,0,0,0,0,.17.23.23,0,0,0,.06.13h.47v0A.69.69,0,0,1,30.63,15.73Zm-1.92-2.46h1a.54.54,0,0,1,.4.14.52.52,0,0,1,.12.36.5.5,0,0,1-.06.26.36.36,0,0,1-.14.16.53.53,0,0,1-.22.08l-.26,0h-.82v-1Z"/><path class="cls-2" d="M33.62,14.78a.94.94,0,0,1-.07.34.73.73,0,0,1-.17.27.76.76,0,0,1-.26.18,1,1,0,0,1-.35.07,1,1,0,0,1-.45-.1.91.91,0,0,1-.31-.27,1.17,1.17,0,0,1-.18-.39,1.86,1.86,0,0,1-.06-.48,1.63,1.63,0,0,1,.06-.45,1.21,1.21,0,0,1,.18-.38.91.91,0,0,1,.31-.27,1,1,0,0,1,1,.06.7.7,0,0,1,.29.47H34v0a1.1,1.1,0,0,0-.14-.42,1.38,1.38,0,0,0-.28-.31,1.16,1.16,0,0,0-.37-.18,1.63,1.63,0,0,0-.45-.06,1.48,1.48,0,0,0-.61.12,1.16,1.16,0,0,0-.44.34,1.62,1.62,0,0,0-.28.5,2.15,2.15,0,0,0,0,1.23,1.36,1.36,0,0,0,.26.49,1.08,1.08,0,0,0,.43.33,1.44,1.44,0,0,0,.61.12,1.27,1.27,0,0,0,.91-.31,1.39,1.39,0,0,0,.39-.88h-.42Z"/><polygon class="cls-2" points="35.17 14.55 36.72 14.55 36.72 14.2 35.17 14.2 35.17 13.27 36.83 13.27 36.83 12.92 34.76 12.92 34.76 15.92 36.84 15.92 36.84 15.56 35.17 15.56 35.17 14.55"/><polygon class="cls-2" points="38.07 12.92 37.65 12.92 37.65 15.92 39.65 15.92 39.65 15.56 38.07 15.56 38.07 12.92"/><path class="cls-2" d="M42.31,13.33a1.19,1.19,0,0,0-.45-.35,1.59,1.59,0,0,0-1.26,0,1.28,1.28,0,0,0-.45.35,1.42,1.42,0,0,0-.27.5,1.92,1.92,0,0,0-.09.59,2,2,0,0,0,.09.59,1.51,1.51,0,0,0,.27.5,1.56,1.56,0,0,0,.45.35,1.71,1.71,0,0,0,1.26,0,1.43,1.43,0,0,0,.45-.35,1.51,1.51,0,0,0,.27-.5,2,2,0,0,0,.09-.59,1.92,1.92,0,0,0-.09-.59A1.42,1.42,0,0,0,42.31,13.33Zm-1.08,2.3a1,1,0,0,1-.46-.1.87.87,0,0,1-.32-.28,1.27,1.27,0,0,1-.18-.39,1.64,1.64,0,0,1,0-.88,1.32,1.32,0,0,1,.18-.4,1.1,1.1,0,0,1,.32-.28,1.11,1.11,0,0,1,.92,0,1.1,1.1,0,0,1,.32.28,1.12,1.12,0,0,1,.18.4,1.64,1.64,0,0,1,0,.88,1.27,1.27,0,0,1-.18.39.87.87,0,0,1-.32.28A1,1,0,0,1,41.23,15.63Z"/><polygon class="cls-2" points="45.42 15.32 43.86 12.92 43.86 12.92 43.42 12.92 43.42 15.92 43.82 15.92 43.82 13.54 45.37 15.92 45.82 15.92 45.82 12.92 45.42 12.92 45.42 15.32"/><path class="cls-2" d="M47.58,12.92l-1.17,3h.43l.33-.9h1.25l.32.89h.46l-1.17-3Zm.7,1.75h-1l.5-1.37Z"/><polygon class="cls-2" points="49.34 13.49 50.24 13.49 50.24 15.92 50.91 15.92 50.91 13.49 51.81 13.49 51.81 12.92 49.34 12.92 49.34 13.49"/><polygon class="cls-2" points="53.03 14.64 54.47 14.64 54.47 14.11 53.03 14.11 53.03 13.49 54.6 13.49 54.6 12.92 52.35 12.92 52.35 15.92 54.64 15.92 54.64 15.35 53.03 15.35 53.03 14.64"/><path class="cls-2" d="M57.29,14.76a.67.67,0,0,1-.67.66c-.59,0-.8-.51-.8-1,0-.24.06-1,.8-1a.63.63,0,0,1,.64.51h.65a1.2,1.2,0,0,0-1.29-1.08,1.45,1.45,0,0,0-1.48,1.58A1.46,1.46,0,0,0,56.62,16a1.27,1.27,0,0,0,1.32-1.23h-.65Z"/><polygon class="cls-2" points="60.28 14.06 59.09 14.06 59.09 12.92 58.42 12.92 58.42 15.92 59.09 15.92 59.09 14.63 60.28 14.63 60.28 15.92 60.96 15.92 60.96 12.92 60.28 12.92 60.28 14.06"/><path class="cls-2" d="M9.56,13.51H9.21v.72h.36a.32.32,0,0,0,.32-.37C9.89,13.67,9.81,13.51,9.56,13.51ZM9.34,0a9.34,9.34,0,1,0,9.34,9.34A9.34,9.34,0,0,0,9.34,0Zm0,2.64A1.33,1.33,0,1,1,8.05,4,1.32,1.32,0,0,1,9.38,2.64Zm0,3.16A1.33,1.33,0,1,1,8.05,7.13,1.32,1.32,0,0,1,9.38,5.8ZM6.14,2.64A1.33,1.33,0,1,1,4.8,4,1.32,1.32,0,0,1,6.14,2.64Zm0,3.16A1.33,1.33,0,1,1,4.8,7.13,1.32,1.32,0,0,1,6.14,5.8ZM6.14,9A1.34,1.34,0,1,1,4.8,10.37,1.33,1.33,0,0,1,6.14,9Zm1.57,5.67a1.12,1.12,0,0,1-.44,1,1.54,1.54,0,0,1-.91.24,1.54,1.54,0,0,1-.92-.24,1.12,1.12,0,0,1-.44-1V12.84h.9v1.87a.5.5,0,0,0,.15.43.49.49,0,0,0,.31.11.48.48,0,0,0,.3-.11.5.5,0,0,0,.15-.43V12.84h.9v1.87ZM9.38,9a1.34,1.34,0,1,1-1.33,1.33A1.33,1.33,0,0,1,9.38,9Zm.95,5.71a1.39,1.39,0,0,1-.87.17H9.21v1H8.42V12.84H9.71a1,1,0,0,1,1,1.06A1,1,0,0,1,10.33,14.75Zm3.22-1a.78.78,0,0,0-.67-.24.86.86,0,0,0,0,1.72.9.9,0,0,0,.66-.24v.8a1.48,1.48,0,0,1-.74.19,1.54,1.54,0,0,1-1.59-1.61,1.56,1.56,0,0,1,1.58-1.62,1.52,1.52,0,0,1,.75.19Zm-1-2.06a1.34,1.34,0,1,1,1.33-1.34A1.34,1.34,0,0,1,12.55,11.71Zm0-3.25a1.33,1.33,0,1,1,1.33-1.33A1.33,1.33,0,0,1,12.55,8.46Zm0-3.16A1.33,1.33,0,1,1,13.88,4,1.33,1.33,0,0,1,12.55,5.3Z"/></g></g></svg>